<?xml version="1.0" encoding="UTF-8"?>
<!DOCTYPE svg PUBLIC "-//W3C//DTD SVG 1.1//EN" "http://www.w3.org/Graphics/SVG/1.1/DTD/svg11.dtd">
<!-- Creator: CorelDRAW 2020 (64-Bit) -->
<svg xmlns="http://www.w3.org/2000/svg" xml:space="preserve" width="60px" height="60px" version="1.1" style="shape-rendering:geometricPrecision; text-rendering:geometricPrecision; image-rendering:optimizeQuality; fill-rule:evenodd; clip-rule:evenodd"
viewBox="0 0 49.51 49.51"
 xmlns:xlink="http://www.w3.org/1999/xlink"
 xmlns:xodm="http://www.corel.com/coreldraw/odm/2003">
 <defs>
  <style type="text/css">
   <![CDATA[
    .fil0 {fill:white;fill-rule:nonzero}
   ]]>
  </style>
 </defs>
 <g id="Capa_x0020_1">
  <metadata id="CorelCorpID_0Corel-Layer"/>
  <g id="_2400575052320">
   <path class="fil0" d="M49.51 24.76c0,-13.68 -11.09,-24.76 -24.75,-24.76 -13.68,0 -24.76,11.08 -24.76,24.76 0,13.66 11.08,24.75 24.76,24.75 0.06,0 0.13,-0.01 0.2,-0.01l0 -17.27 -5.95 0 0 -6.9 5.95 0 0 -5.09c0,-5.91 3.61,-9.12 8.88,-9.12 2.52,0 4.69,0.19 5.33,0.27l0 6.17 -3.66 0c-2.86,0 -3.42,1.37 -3.42,3.37l0 4.4 6.84 0 -0.89 6.9 -5.95 0 0 16.17c10.09,-3.13 17.42,-12.53 17.42,-23.64l0 0z"/>
  </g>
 </g>
</svg>
