<?xml version="1.0" encoding="UTF-8"?>
<!DOCTYPE svg PUBLIC "-//W3C//DTD SVG 1.1//EN" "http://www.w3.org/Graphics/SVG/1.1/DTD/svg11.dtd">
<!-- Creator: CorelDRAW 2020 (64-Bit) -->
<svg xmlns="http://www.w3.org/2000/svg" xml:space="preserve" width="60px" height="60px" version="1.1" style="shape-rendering:geometricPrecision; text-rendering:geometricPrecision; image-rendering:optimizeQuality; fill-rule:evenodd; clip-rule:evenodd"
viewBox="0 0 8.95 8.95"
 xmlns:xlink="http://www.w3.org/1999/xlink"
 xmlns:xodm="http://www.corel.com/coreldraw/odm/2003">
 <defs>
  <style type="text/css">
   <![CDATA[
    .fil0 {fill:chocolate;fill-rule:nonzero}
   ]]>
  </style>
 </defs>
 <g id="Capa_x0020_1">
  <metadata id="CorelCorpID_0Corel-Layer"/>
  <g id="_2400584122192">
   <path class="fil0" d="M8.95 4.47c0,-2.47 -2.01,-4.47 -4.48,-4.47 -2.47,0 -4.47,2 -4.47,4.47 0,2.47 2,4.48 4.47,4.48 0.02,0 0.03,0 0.04,0l0 -3.12 -1.07 0 0 -1.25 1.07 0 0 -0.92c0,-1.07 0.65,-1.65 1.61,-1.65 0.45,0 0.84,0.03 0.96,0.05l0 1.11 -0.66 0c-0.52,0 -0.62,0.25 -0.62,0.61l0 0.8 1.24 0 -0.17 1.25 -1.07 0 0 2.92c1.82,-0.57 3.15,-2.27 3.15,-4.28l0 0z"/>
  </g>
 </g>
</svg>
