<?xml version="1.0" encoding="UTF-8"?>
<!DOCTYPE svg PUBLIC "-//W3C//DTD SVG 1.1//EN" "http://www.w3.org/Graphics/SVG/1.1/DTD/svg11.dtd">
<!-- Creator: CorelDRAW 2020 (64-Bit) -->
<svg xmlns="http://www.w3.org/2000/svg" xml:space="preserve" width="60px" height="60px" version="1.1" style="shape-rendering:geometricPrecision; text-rendering:geometricPrecision; image-rendering:optimizeQuality; fill-rule:evenodd; clip-rule:evenodd"
viewBox="0 0 6.41 6.41"
 xmlns:xlink="http://www.w3.org/1999/xlink"
 xmlns:xodm="http://www.corel.com/coreldraw/odm/2003">
 <defs>
  <style type="text/css">
   <![CDATA[
    .fil0 {fill:chocolate}
   ]]>
  </style>
 </defs>
 <g id="Capa_x0020_1">
  <metadata id="CorelCorpID_0Corel-Layer"/>
  <g id="_2400585901264">
   <path class="fil0" d="M6.41 3.2c0,1.77 -1.44,3.21 -3.21,3.21 -1.77,0 -3.2,-1.44 -3.2,-3.21 0,-1.77 1.43,-3.2 3.2,-3.2 1.77,0 3.21,1.43 3.21,3.2zm-4.08 -1.85c-0.59,0 -1.08,0.49 -1.08,1.09l0 1.53c0,0.6 0.49,1.08 1.08,1.08l1.74 0c0.6,0 1.09,-0.48 1.09,-1.08l0 -1.53c0,-0.6 -0.49,-1.09 -1.09,-1.09l-1.74 0zm1.74 4.01l-1.74 0c-0.77,0 -1.39,-0.62 -1.39,-1.39l0 -1.53c0,-0.77 0.62,-1.4 1.39,-1.4l1.74 0c0.77,0 1.4,0.63 1.4,1.4l0 1.53c0,0.77 -0.63,1.39 -1.4,1.39zm-0.87 -3.09c-0.51,0 -0.93,0.42 -0.93,0.93 0,0.52 0.42,0.94 0.93,0.94 0.52,0 0.94,-0.42 0.94,-0.94 0,-0.51 -0.42,-0.93 -0.94,-0.93zm0 2.18c-0.68,0 -1.24,-0.56 -1.24,-1.25 0,-0.68 0.56,-1.24 1.24,-1.24 0.69,0 1.25,0.56 1.25,1.24 0,0.69 -0.56,1.25 -1.25,1.25zm1.48 -2.45c0,0.14 -0.11,0.26 -0.25,0.26 -0.15,0 -0.26,-0.12 -0.26,-0.26 0,-0.15 0.11,-0.26 0.26,-0.26 0.14,0 0.25,0.11 0.25,0.26z"/>
  </g>
 </g>
</svg>
