<?xml version="1.0" encoding="UTF-8"?>
<!DOCTYPE svg PUBLIC "-//W3C//DTD SVG 1.1//EN" "http://www.w3.org/Graphics/SVG/1.1/DTD/svg11.dtd">
<!-- Creator: CorelDRAW 2020 (64-Bit) -->
<svg xmlns="http://www.w3.org/2000/svg" xml:space="preserve" width="60px" height="60px" version="1.1" style="shape-rendering:geometricPrecision; text-rendering:geometricPrecision; image-rendering:optimizeQuality; fill-rule:evenodd; clip-rule:evenodd"
viewBox="0 0 41.38 41.38"
 xmlns:xlink="http://www.w3.org/1999/xlink"
 xmlns:xodm="http://www.corel.com/coreldraw/odm/2003">
 <defs>
  <style type="text/css">
   <![CDATA[
    .fil0 {fill:white}
   ]]>
  </style>
 </defs>
 <g id="Capa_x0020_1">
  <metadata id="CorelCorpID_0Corel-Layer"/>
  <g id="_2400579256000">
   <path class="fil0" d="M41.38 20.69c0,11.42 -9.27,20.69 -20.69,20.69 -11.42,0 -20.69,-9.27 -20.69,-20.69 0,-11.43 9.26,-20.69 20.69,-20.69 11.42,0 20.69,9.26 20.69,20.69zm-26.3 -11.96c-3.87,0 -7.02,3.15 -7.02,7.02l0 9.88c0,3.87 3.15,7.02 7.02,7.02l11.22 0c3.86,0 7.01,-3.15 7.01,-7.02l0 -9.88c0,-3.87 -3.15,-7.02 -7.01,-7.02l-11.22 0zm11.22 25.92l-11.22 0c-4.97,0 -9.02,-4.05 -9.02,-9.02l0 -9.88c0,-4.98 4.05,-9.02 9.02,-9.02l11.22 0c4.97,0 9.02,4.04 9.02,9.02l0 9.88c0,4.97 -4.05,9.02 -9.02,9.02zm-5.61 -19.99c-3.32,0 -6.03,2.71 -6.03,6.03 0,3.32 2.71,6.02 6.03,6.02 3.32,0 6.03,-2.7 6.03,-6.02 0,-3.32 -2.71,-6.03 -6.03,-6.03zm0 14.06c-4.43,0 -8.03,-3.6 -8.03,-8.03 0,-4.43 3.6,-8.03 8.03,-8.03 4.43,0 8.03,3.6 8.03,8.03 0,4.43 -3.6,8.03 -8.03,8.03zm9.57 -15.81c0,0.91 -0.74,1.66 -1.66,1.66 -0.92,0 -1.67,-0.75 -1.67,-1.66 0,-0.93 0.75,-1.67 1.67,-1.67 0.92,0 1.66,0.74 1.66,1.67z"/>
  </g>
 </g>
</svg>
