<?xml version="1.0" encoding="UTF-8"?>
<!DOCTYPE svg PUBLIC "-//W3C//DTD SVG 1.1//EN" "http://www.w3.org/Graphics/SVG/1.1/DTD/svg11.dtd">
<!-- Creator: CorelDRAW 2020 (64-Bit) -->
<svg xmlns="http://www.w3.org/2000/svg" xml:space="preserve" width="60px" height="60px" version="1.1" style="shape-rendering:geometricPrecision; text-rendering:geometricPrecision; image-rendering:optimizeQuality; fill-rule:evenodd; clip-rule:evenodd"
viewBox="0 0 14.2 14.2"
 xmlns:xlink="http://www.w3.org/1999/xlink"
 xmlns:xodm="http://www.corel.com/coreldraw/odm/2003">
 <defs>
  <style type="text/css">
   <![CDATA[
    .fil0 {fill:chocolate;fill-rule:nonzero}
   ]]>
  </style>
 </defs>
 <g id="Capa_x0020_1">
  <metadata id="CorelCorpID_0Corel-Layer"/>
  <g id="_2400588882624">
   <path class="fil0" d="M7.1 14.2c3.91,0 7.1,-3.19 7.1,-7.1 0,-3.92 -3.19,-7.1 -7.1,-7.1 -3.92,0 -7.1,3.18 -7.1,7.1 0,1.51 0.47,2.95 1.36,4.17l-0.57 2.93 2.77 -0.96c1.08,0.63 2.3,0.96 3.54,0.96zm-2.97 -2.77l0.19 0.11c0.84,0.53 1.8,0.81 2.78,0.81 2.89,0 5.25,-2.36 5.25,-5.25 0,-2.9 -2.36,-5.25 -5.25,-5.25 -2.9,0 -5.25,2.35 -5.25,5.25 0,1.18 0.38,2.29 1.11,3.23l0.13 0.16 -0.27 1.39 1.31 -0.45 0 0zm2.97 1.84c-1.08,0 -2.14,-0.29 -3.08,-0.83l-2.4 0.83 0.49 -2.55c-0.77,-1.06 -1.18,-2.31 -1.18,-3.62 0,-3.4 2.77,-6.17 6.17,-6.17 3.4,0 6.17,2.77 6.17,6.17 0,3.4 -2.77,6.17 -6.17,6.17zm-3.11 -8.54c0,0 0.36,-0.63 0.65,-0.67 0.3,-0.04 0.68,-0.04 0.78,0.16 0.1,0.19 0.56,1.31 0.56,1.31 0,0 0.08,0.19 -0.04,0.38 -0.12,0.19 -0.39,0.46 -0.39,0.46 0,0 -0.16,0.19 0,0.39 0.15,0.21 0.38,0.59 0.86,1.07 0.49,0.48 1.41,0.83 1.41,0.83 0,0 0.14,0.01 0.22,-0.07 0.08,-0.08 0.54,-0.66 0.54,-0.66 0,0 0.15,-0.19 0.39,-0.07 0.25,0.11 1.3,0.63 1.3,0.63 0,0 0.13,0.05 0.13,0.24 0,0.18 -0.08,0.64 -0.23,0.79 -0.16,0.16 -0.61,0.63 -1.29,0.63 -0.68,0 -2.29,-0.55 -3.15,-1.41 -0.87,-0.86 -1.63,-1.73 -1.81,-2.53 -0.18,-0.8 -0.16,-1.15 0.07,-1.48l0 0z"/>
  </g>
 </g>
</svg>
