<?xml version="1.0" encoding="UTF-8"?>
<!DOCTYPE svg PUBLIC "-//W3C//DTD SVG 1.1//EN" "http://www.w3.org/Graphics/SVG/1.1/DTD/svg11.dtd">
<!-- Creator: CorelDRAW 2020 (64-Bit) -->
<svg xmlns="http://www.w3.org/2000/svg" xml:space="preserve" width="60px" height="60px" version="1.1" style="shape-rendering:geometricPrecision; text-rendering:geometricPrecision; image-rendering:optimizeQuality; fill-rule:evenodd; clip-rule:evenodd"
viewBox="0 0 16.26 16.26"
 xmlns:xlink="http://www.w3.org/1999/xlink"
 xmlns:xodm="http://www.corel.com/coreldraw/odm/2003">
 <defs>
  <style type="text/css">
   <![CDATA[
    .fil0 {fill:white;fill-rule:nonzero}
   ]]>
  </style>
 </defs>
 <g id="Capa_x0020_1">
  <metadata id="CorelCorpID_0Corel-Layer"/>
  <g id="_2400579020928">
   <path class="fil0" d="M8.13 16.26c4.48,0 8.13,-3.65 8.13,-8.13 0,-4.48 -3.65,-8.13 -8.13,-8.13 -4.48,0 -8.13,3.65 -8.13,8.13 0,1.73 0.54,3.37 1.56,4.77l-0.65 3.36 3.16 -1.1c1.24,0.72 2.64,1.1 4.06,1.1zm-3.4 -3.17l0.21 0.13c0.96,0.6 2.06,0.92 3.19,0.92 3.31,0 6.01,-2.7 6.01,-6.01 0,-3.32 -2.7,-6.01 -6.01,-6.01 -3.32,0 -6.01,2.69 -6.01,6.01 0,1.35 0.44,2.62 1.27,3.69l0.15 0.19 -0.31 1.59 1.5 -0.51 0 0zm3.4 2.1c-1.24,0 -2.45,-0.33 -3.52,-0.95l-2.76 0.95 0.57 -2.91c-0.89,-1.22 -1.35,-2.65 -1.35,-4.15 0,-3.9 3.16,-7.06 7.06,-7.06 3.89,0 7.06,3.16 7.06,7.06 0,3.89 -3.17,7.06 -7.06,7.06zm-3.57 -9.78c0,0 0.42,-0.72 0.76,-0.76 0.33,-0.04 0.77,-0.04 0.88,0.18 0.12,0.22 0.65,1.5 0.65,1.5 0,0 0.09,0.22 -0.05,0.44 -0.14,0.21 -0.45,0.52 -0.45,0.52 0,0 -0.17,0.22 0,0.46 0.17,0.23 0.44,0.66 0.99,1.21 0.56,0.56 1.62,0.95 1.62,0.95 0,0 0.15,0.02 0.25,-0.07 0.09,-0.1 0.62,-0.76 0.62,-0.76 0,0 0.17,-0.21 0.44,-0.09 0.28,0.13 1.49,0.74 1.49,0.74 0,0 0.15,0.05 0.15,0.26 0,0.21 -0.09,0.74 -0.27,0.92 -0.17,0.17 -0.69,0.72 -1.47,0.72 -0.78,0 -2.63,-0.64 -3.61,-1.62 -0.99,-0.99 -1.87,-1.99 -2.07,-2.9 -0.21,-0.91 -0.18,-1.32 0.07,-1.7l0 0z"/>
  </g>
 </g>
</svg>
